<?xml version="1.0" standalone="no"?>
<!DOCTYPE svg PUBLIC "-//W3C//DTD SVG 20010904//EN"
 "http://www.w3.org/TR/2001/REC-SVG-20010904/DTD/svg10.dtd">
<svg version="1.0" xmlns="http://www.w3.org/2000/svg"
 width="1108.000000pt" height="1108.000000pt" viewBox="0 0 1108.000000 1108.000000"
 preserveAspectRatio="xMidYMid meet">
<metadata>
Created by potrace 1.14, written by Peter Selinger 2001-2017
</metadata>
<g transform="translate(0.000000,1108.000000) scale(0.100000,-0.100000)"
fill="#000000" stroke="none">
<path d="M6133 9140 c-24 -22 -44 -76 -47 -126 -2 -19 -7 -39 -12 -44 -12 -12
-378 -195 -383 -191 -2 1 -7 -1 -10 -6 -3 -4 -173 -91 -377 -193 l-371 -185
-46 29 c-76 47 -188 40 -257 -16 -48 -40 -94 -139 -86 -185 4 -17 -13 -28
-102 -73 -59 -30 -109 -53 -112 -53 -3 1 -10 -3 -16 -8 -15 -12 -285 -147
-299 -149 -5 -1 -15 -6 -21 -11 -6 -5 -143 -75 -304 -155 -264 -132 -296 -145
-314 -133 -51 32 -84 43 -134 45 -52 2 -132 -21 -132 -38 0 -4 -5 -8 -11 -8
-32 0 -88 -106 -89 -166 l0 -40 -575 -288 -574 -287 -43 25 c-155 91 -348 -18
-348 -197 0 -21 -58 -52 -568 -307 -312 -157 -571 -285 -577 -285 -5 -1 -22 7
-36 17 -14 9 -47 23 -73 30 -57 15 -140 0 -186 -33 l-30 -23 0 -163 0 -163 39
-24 c40 -26 138 -49 146 -35 3 4 13 7 23 6 22 -1 82 23 82 33 0 30 84 -7 605
-268 561 -280 575 -288 575 -316 0 -118 110 -226 230 -226 46 0 106 20 131 43
l22 20 577 -288 c575 -287 578 -289 577 -319 -2 -28 -14 -35 -364 -210 -200
-100 -363 -180 -363 -178 0 3 -6 0 -13 -6 -7 -6 -102 -56 -212 -111 -169 -84
-202 -97 -215 -86 -61 53 -167 64 -241 26 -78 -41 -113 -91 -124 -177 -4 -27
-10 -52 -13 -56 -12 -11 -307 -158 -319 -158 -6 0 -13 -3 -15 -7 -1 -5 -138
-75 -303 -156 -165 -82 -307 -153 -315 -157 -74 -44 -185 -89 -206 -84 -13 3
-24 10 -24 14 0 12 -68 33 -115 35 -41 2 -143 -36 -157 -58 -4 -7 -8 -82 -8
-168 0 -149 1 -156 23 -176 12 -11 37 -26 55 -33 39 -15 122 -21 137 -9 6 4
15 8 20 9 16 4 49 19 67 32 15 11 33 5 115 -37 54 -27 100 -49 103 -50 6 -1
728 -363 750 -375 8 -5 47 -24 85 -43 121 -59 120 -58 119 -97 -1 -35 23 -100
49 -133 12 -15 34 -17 174 -17 140 0 162 2 175 18 20 22 50 82 42 82 -4 0 -2
6 3 13 5 6 8 26 7 44 -2 31 0 32 131 98 74 37 137 66 141 65 4 -1 10 2 13 7 9
13 171 94 171 85 0 -4 4 -2 8 3 8 13 358 188 368 185 4 -1 10 2 13 7 3 5 74
43 157 84 151 75 151 75 175 56 112 -83 288 -36 342 92 14 35 14 36 16 80 l1
39 167 83 c92 46 169 82 171 81 3 -2 8 0 11 5 9 13 151 84 151 75 0 -4 4 -2 8
4 8 12 297 157 308 154 4 -1 10 2 13 7 7 10 311 163 324 163 5 0 24 -12 43
-26 19 -15 34 -23 34 -19 0 4 6 3 13 -3 20 -17 128 -10 162 10 17 10 39 23 51
29 18 9 101 -29 592 -275 315 -157 572 -289 573 -294 0 -4 2 -26 4 -49 13
-139 160 -231 296 -186 83 28 154 125 152 208 0 29 5 35 46 55 25 12 48 21 50
20 2 -1 7 2 10 7 8 11 134 73 148 73 6 0 13 3 15 8 4 9 90 52 105 52 6 0 13 3
15 8 3 8 214 113 224 111 4 0 10 3 13 8 8 10 157 83 171 83 5 0 10 4 10 10 0
5 12 13 28 16 15 4 29 10 32 13 9 10 215 111 228 111 7 0 12 3 12 8 0 4 11 12
24 18 19 9 27 8 39 -3 63 -63 203 -64 288 -2 13 10 119 -40 591 -276 l575
-287 0 -32 c-1 -80 55 -164 135 -201 86 -40 207 -13 261 58 44 59 51 78 56
164 1 13 1132 583 1156 583 8 0 18 -6 22 -13 14 -22 105 -47 154 -42 45 5 68
14 117 45 21 14 22 20 22 176 0 141 -2 163 -17 176 -50 43 -122 60 -194 45
-30 -6 -91 -36 -99 -48 -6 -8 -749 357 -761 374 -3 5 -10 9 -15 9 -14 0 -298
141 -305 151 -3 5 -8 8 -10 7 -8 -3 -57 19 -63 29 -4 5 -8 27 -10 49 -8 80
-57 148 -131 183 -142 66 -302 -29 -318 -189 -2 -23 -6 -44 -8 -46 -2 -2 -240
-122 -529 -266 -289 -144 -529 -265 -535 -269 -5 -4 -25 -13 -42 -21 -30 -11
-38 -10 -90 15 -80 40 -167 38 -225 -5 -15 -11 -34 -20 -42 -20 -8 0 -104 45
-214 100 -110 55 -204 100 -210 100 -6 0 -12 3 -14 8 -3 7 -271 141 -285 143
-5 0 -15 6 -23 13 -8 7 -49 28 -90 47 -41 18 -77 36 -80 39 -3 3 -56 30 -117
60 -62 30 -115 60 -117 67 -16 40 4 51 580 339 l573 286 28 -19 c46 -31 81
-43 126 -43 90 1 160 45 201 125 58 112 15 243 -98 300 -76 38 -179 31 -230
-17 -11 -10 -22 -18 -25 -18 -10 0 -884 440 -898 451 -7 7 -13 9 -13 6 0 -3
-55 22 -122 56 -110 57 -121 65 -123 91 -1 25 7 32 80 69 44 23 82 41 85 42 3
1 75 37 160 80 85 43 157 79 160 80 3 1 39 18 80 40 41 21 81 40 88 41 7 1 18
7 25 12 13 11 438 225 449 226 3 1 9 4 13 8 4 3 28 -6 53 -21 60 -35 149 -41
208 -14 38 17 118 92 109 101 -3 3 1 12 7 19 7 8 13 45 15 83 2 61 -1 72 -29
116 -50 79 -102 108 -193 109 -56 0 -85 -9 -140 -44 -19 -12 -68 10 -472 213
-249 124 -456 226 -462 226 -5 0 -11 3 -13 8 -1 4 -50 30 -106 57 -160 77
-159 95 15 181 65 31 121 62 125 68 4 6 8 8 8 5 0 -4 200 93 443 215 l444 222
33 -22 c52 -36 112 -45 195 -30 23 4 94 57 112 83 65 92 52 231 -27 301 -48
42 -177 73 -207 49 -7 -5 -13 -6 -13 -3 0 4 -22 -5 -48 -20 l-49 -27 -576 288
c-520 260 -576 290 -573 310 5 28 -26 119 -49 145 -17 18 -31 20 -175 20 -141
0 -158 -2 -177 -20z m-1372 -2674 c41 -2 66 4 104 22 28 14 53 29 56 34 6 10
1143 -555 1155 -573 27 -44 30 -41 -570 -341 -539 -269 -579 -288 -596 -273
-29 26 -112 52 -154 48 -41 -4 -100 -27 -127 -50 -14 -12 -49 3 -265 111 -137
69 -260 130 -274 136 -14 6 -160 79 -325 163 -292 148 -300 153 -300 182 0 29
8 34 573 316 l574 287 47 -29 c35 -22 63 -31 102 -33z"/>
</g>
</svg>
