<?xml version="1.0" standalone="no"?>
<!DOCTYPE svg PUBLIC "-//W3C//DTD SVG 20010904//EN"
 "http://www.w3.org/TR/2001/REC-SVG-20010904/DTD/svg10.dtd">
<svg version="1.0" xmlns="http://www.w3.org/2000/svg"
 width="1064.000000pt" height="1064.000000pt" viewBox="0 0 1064.000000 1064.000000"
 preserveAspectRatio="xMidYMid meet">
<metadata>
Created by potrace 1.14, written by Peter Selinger 2001-2017
</metadata>
<g transform="translate(0.000000,1064.000000) scale(0.100000,-0.100000)"
fill="#000000" stroke="none">
<path d="M7289 9005 c-3 -2 -14 -6 -25 -8 -88 -14 -160 -117 -164 -234 0 -12
-197 -113 -219 -113 -5 0 -11 -4 -13 -8 -4 -10 -569 -292 -585 -292 -6 0 -13
-4 -15 -8 -1 -5 -70 -42 -153 -82 -82 -40 -153 -74 -156 -76 -3 -2 -21 8 -41
21 -30 20 -89 39 -123 39 -28 0 -91 -17 -114 -32 -68 -42 -109 -108 -115 -187
-9 -129 83 -233 216 -242 58 -5 143 22 160 50 5 8 182 -76 581 -275 668 -334
639 -311 503 -379 -44 -22 -88 -44 -96 -49 -8 -5 -231 -117 -495 -249 l-480
-239 -29 23 c-33 26 -119 47 -161 39 -47 -8 -110 -39 -134 -65 -62 -66 -84
-176 -50 -253 23 -52 79 -109 127 -128 66 -26 170 -11 233 34 13 9 122 -42
591 -276 569 -285 576 -288 569 -314 -6 -23 -78 -62 -572 -309 -310 -155 -570
-283 -576 -283 -7 0 -13 3 -13 8 0 30 -178 64 -207 40 -7 -6 -13 -8 -13 -4 0
12 -54 -21 -87 -53 -18 -17 -40 -48 -49 -68 -17 -40 -26 -153 -12 -153 4 0 7
-3 6 -7 -9 -34 43 -101 107 -138 70 -42 179 -36 245 13 25 19 26 19 80 -9 126
-63 180 -89 187 -89 3 0 14 -6 22 -13 9 -7 36 -22 61 -32 25 -11 47 -22 50
-25 3 -3 39 -21 80 -40 41 -19 77 -37 80 -40 8 -8 83 -43 98 -46 7 -1 20 -8
28 -15 17 -14 112 -61 132 -65 8 -1 22 -10 33 -20 10 -9 19 -13 19 -8 0 5 4 5
8 -1 6 -9 140 -77 167 -85 6 -2 32 -16 58 -32 26 -15 54 -28 61 -28 8 0 12 -8
9 -23 -4 -20 -93 -68 -580 -312 -471 -235 -579 -286 -592 -276 -36 25 -69 35
-130 37 -138 5 -234 -88 -234 -227 0 -54 5 -75 26 -111 74 -126 217 -154 352
-69 18 11 54 -5 315 -134 162 -80 302 -150 310 -155 8 -5 130 -66 270 -135
140 -70 256 -128 256 -129 1 0 4 -24 8 -52 15 -126 110 -214 229 -209 58 2 98
11 106 22 11 14 56 33 72 30 10 -2 23 -8 30 -13 12 -10 125 -65 139 -68 3 -1
14 -7 25 -14 22 -13 447 -225 455 -227 3 0 14 -6 25 -13 11 -7 119 -61 240
-122 l220 -109 1 -55 c2 -114 97 -207 217 -212 34 -2 66 1 72 6 5 4 13 9 17 9
43 7 104 62 129 117 10 23 19 65 20 94 2 52 2 52 50 75 27 12 54 26 61 31 7 5
195 99 418 209 223 110 407 203 408 208 2 4 8 7 14 7 15 0 117 51 124 61 3 5
14 9 24 9 10 0 20 5 22 11 2 6 14 3 28 -9 62 -49 96 -61 167 -58 64 2 98 13
131 44 7 6 18 12 23 12 5 0 9 5 9 11 0 7 6 17 14 23 19 16 46 91 46 129 0 91
-53 175 -134 213 -40 18 -63 22 -114 19 -40 -2 -68 -8 -73 -17 -5 -7 -9 -10
-9 -5 0 4 -11 0 -24 -8 -23 -16 -42 -7 -604 274 l-579 290 -6 50 c-19 158
-195 248 -334 171 l-48 -26 -558 278 c-306 153 -560 278 -563 278 -11 0 -29
25 -28 38 1 6 2 16 3 21 0 5 49 33 109 61 59 29 110 57 114 63 4 7 8 9 8 5 0
-4 169 78 375 181 206 104 375 186 375 182 0 -3 4 -1 8 4 4 6 39 26 77 45 l70
36 55 -28 c54 -28 113 -36 169 -24 88 20 165 116 170 213 3 57 -25 132 -65
172 -71 71 -183 85 -278 36 l-51 -26 -565 282 c-311 155 -566 283 -568 284 -2
1 -5 14 -8 29 -4 22 1 29 33 44 21 9 40 20 41 25 2 4 12 7 23 7 10 0 19 5 19
11 0 5 4 8 9 4 5 -3 16 2 24 10 9 8 19 15 23 15 13 0 219 104 222 113 2 4 9 7
16 7 18 0 66 24 66 33 0 4 5 7 12 7 16 0 182 83 186 93 2 4 9 7 15 7 15 0 101
43 105 53 2 4 9 7 16 7 18 0 66 24 66 33 0 4 6 7 13 7 15 0 101 42 105 53 2 4
9 7 15 7 15 0 101 43 105 53 6 13 33 7 77 -18 156 -86 344 24 343 201 -2 151
-133 252 -286 220 -19 -4 -49 -17 -68 -30 l-34 -23 -572 286 c-532 266 -572
288 -573 313 -2 25 26 40 571 312 l572 286 47 -27 c165 -92 363 38 341 224 -7
59 -17 81 -61 131 -45 51 -71 62 -184 74 -3 0 -8 -1 -11 -2 -3 -1 -14 -3 -25
-5 -24 -5 -65 -25 -86 -43 -14 -11 -28 -8 -95 25 -44 21 -81 40 -84 43 -9 9
-324 164 -338 166 -7 1 -19 7 -26 13 -19 16 -360 185 -368 183 -5 -1 -8 3 -8
10 0 6 -3 8 -7 5 -3 -4 -12 -2 -18 3 -7 6 -58 33 -113 60 -105 51 -106 51
-116 126 -8 66 -58 129 -128 162 -43 20 -127 30 -139 17z"/>
<path d="M4769 8223 c-52 -17 -115 -74 -136 -122 -8 -18 -17 -54 -20 -80 -3
-25 -6 -46 -7 -47 0 0 -239 -119 -531 -264 -291 -146 -533 -264 -537 -262 -5
1 -8 -2 -8 -6 0 -4 -16 -14 -35 -21 -31 -11 -38 -10 -63 7 -84 59 -203 48
-290 -27 -32 -28 -70 -116 -67 -155 l4 -33 -452 -227 c-249 -124 -458 -226
-464 -226 -6 0 -13 -3 -15 -7 -1 -5 -51 -32 -109 -61 l-107 -52 -43 25 c-122
69 -269 24 -329 -101 -12 -25 -23 -63 -23 -84 l-1 -39 -572 -285 -572 -286
-38 22 c-43 25 -52 28 -111 35 -118 14 -234 -88 -239 -210 -3 -64 9 -104 46
-159 64 -94 233 -114 325 -38 11 9 46 -5 163 -64 82 -42 153 -76 157 -76 4 0
19 -9 33 -19 15 -10 29 -19 32 -19 7 0 503 -245 510 -252 3 -3 64 -34 136 -69
l132 -64 0 -38 c1 -78 67 -171 141 -201 69 -28 186 -14 228 28 8 7 22 10 35 5
19 -6 599 -294 700 -347 18 -10 35 -19 38 -19 11 -2 376 -187 387 -197 18 -14
10 -46 -15 -64 -12 -8 -22 -12 -22 -7 0 4 -4 4 -8 -2 -4 -5 -252 -132 -552
-281 l-545 -271 -30 22 c-65 49 -148 53 -235 12 -71 -34 -126 -125 -121 -204
0 -18 -11 -29 -49 -48 -27 -14 -53 -25 -56 -24 -4 0 -10 -3 -13 -8 -12 -16
-1036 -521 -1041 -513 -11 17 -87 49 -124 53 -50 5 -115 -9 -138 -30 -10 -9
-18 -13 -18 -9 0 17 -61 -58 -79 -97 -24 -51 -22 -147 3 -195 36 -69 132 -129
201 -127 49 2 98 16 127 36 14 11 31 19 38 19 12 0 1101 -540 1110 -551 3 -3
13 -8 23 -12 12 -4 17 -17 17 -44 1 -91 83 -191 171 -209 141 -29 272 62 284
198 4 37 31 78 52 78 13 0 578 284 581 292 2 4 9 8 16 8 7 0 123 56 259 124
200 100 249 121 258 110 6 -7 35 -22 65 -34 142 -53 290 38 309 189 3 24 7 46
10 50 2 4 259 135 571 291 471 235 569 281 583 271 149 -108 366 -13 374 164
l2 44 574 287 c471 235 577 285 590 275 125 -91 298 -44 354 97 46 114 -3 237
-116 291 -48 23 -134 31 -160 14 -7 -4 -18 -8 -26 -10 -8 -1 -27 -11 -43 -23
-24 -17 -31 -19 -50 -8 -13 7 -26 17 -29 21 -3 5 -9 8 -13 7 -10 -3 -560 272
-564 282 -2 4 -11 8 -20 9 -9 0 -125 55 -257 122 l-239 122 -3 43 c-6 121
-111 214 -244 215 -30 1 -107 -29 -130 -49 -14 -12 -38 -3 -200 78 -101 50
-185 95 -187 100 -2 4 -9 8 -17 8 -7 0 -181 84 -386 188 -333 166 -374 190
-373 210 1 12 3 25 6 27 2 3 261 133 574 289 513 257 570 283 585 270 25 -22
109 -50 144 -48 129 9 234 111 227 222 -1 30 3 34 46 55 26 12 52 25 57 30 11
8 496 251 505 252 3 0 21 9 40 20 162 86 506 252 510 245 3 -5 27 -19 54 -31
158 -69 327 40 325 211 -1 96 -73 193 -161 217 -53 15 -127 6 -180 -21 l-53
-27 -458 229 c-251 126 -457 227 -457 224 0 -2 -6 1 -14 7 -7 6 -56 32 -107
58 -52 25 -96 48 -98 49 -2 2 -5 22 -7 45 -11 148 -163 249 -305 202z"/>
</g>
</svg>
